<svg width="200" height="150" xmlns="http://www.w3.org/2000/svg"><rect width="200" height="150" fill="#000000"/><rect x="0" y="0" width="25" height="12.5" fill="#2D2D2D" stroke="#555" stroke-width="0.5"/><rect x="25" y="0" width="25" height="12.5" fill="#2D2D2D" stroke="#555" stroke-width="0.5"/><rect x="50" y="0" width="25" height="12.5" fill="#2D2D2D" stroke="#555" stroke-width="0.5"/><rect x="75" y="0" width="25" height="12.5" fill="#2D2D2D" stroke="#555" stroke-width="0.5"/><rect x="100" y="0" width="25" height="12.5" fill="#2D2D2D" stroke="#555" stroke-width="0.5"/><rect x="125" y="0" width="25" height="12.5" fill="#2D2D2D" stroke="#555" stroke-width="0.5"/><rect x="150" y="0" width="25" height="12.5" fill="#2D2D2D" stroke="#555" stroke-width="0.5"/><rect x="175" y="0" width="25" height="12.5" fill="#2D2D2D" stroke="#555" stroke-width="0.5"/><rect x="0" y="12.5" width="25" height="12.5" fill="#B8D8F0" stroke="#555" stroke-width="0.5"/><rect x="25" y="12.5" width="25" height="12.5" fill="#B8D8F0" stroke="#555" stroke-width="0.5"/><rect x="50" y="12.5" width="25" height="12.5" fill="#B8D8F0" stroke="#555" stroke-width="0.5"/><rect x="75" y="12.5" width="25" height="12.5" fill="#B8D8F0" stroke="#555" stroke-width="0.5"/><rect x="100" y="12.5" width="25" height="12.5" fill="#B8D8F0" stroke="#555" stroke-width="0.5"/><rect x="125" y="12.5" width="25" height="12.5" fill="#B8D8F0" stroke="#555" stroke-width="0.5"/><rect x="150" y="12.5" width="25" height="12.5" fill="#B8D8F0" stroke="#555" stroke-width="0.5"/><rect x="175" y="12.5" width="25" height="12.5" fill="#B8D8F0" stroke="#555" stroke-width="0.5"/><rect x="0" y="25" width="25" height="12.5" fill="#A8E6CF" stroke="#555" stroke-width="0.5"/><rect x="25" y="25" width="25" height="12.5" fill="#A8E6CF" stroke="#555" stroke-width="0.5"/><rect x="50" y="25" width="25" height="12.5" fill="#A8E6CF" stroke="#555" stroke-width="0.5"/><rect x="75" y="25" width="25" height="12.5" fill="#A8E6CF" stroke="#555" stroke-width="0.5"/><rect x="100" y="25" width="25" height="12.5" fill="#A8E6CF" stroke="#555" stroke-width="0.5"/><rect x="125" y="25" width="25" height="12.5" fill="#A8E6CF" stroke="#555" stroke-width="0.5"/><rect x="150" y="25" width="25" height="12.5" fill="#A8E6CF" stroke="#555" stroke-width="0.5"/><rect x="175" y="25" width="25" height="12.5" fill="#A8E6CF" stroke="#555" stroke-width="0.5"/><rect x="0" y="37.5" width="25" height="12.5" fill="#A8E6CF" stroke="#555" stroke-width="0.5"/><rect x="25" y="37.5" width="25" height="12.5" fill="#A8E6CF" stroke="#555" stroke-width="0.5"/><rect x="50" y="37.5" width="25" height="12.5" fill="#A8E6CF" stroke="#555" stroke-width="0.5"/><rect x="75" y="37.5" width="25" height="12.5" fill="#A8E6CF" stroke="#555" stroke-width="0.5"/><rect x="100" y="37.5" width="25" height="12.5" fill="#A8E6CF" stroke="#555" stroke-width="0.5"/><rect x="125" y="37.5" width="25" height="12.5" fill="#A8E6CF" stroke="#555" stroke-width="0.5"/><rect x="150" y="37.5" width="25" height="12.5" fill="#A8E6CF" stroke="#555" stroke-width="0.5"/><rect x="175" y="37.5" width="25" height="12.5" fill="#A8E6CF" stroke="#555" stroke-width="0.5"/><rect x="0" y="50" width="25" height="12.5" fill="#B8D8F0" stroke="#555" stroke-width="0.5"/><rect x="25" y="50" width="25" height="12.5" fill="#B8D8F0" stroke="#555" stroke-width="0.5"/><rect x="50" y="50" width="25" height="12.5" fill="#B8D8F0" stroke="#555" stroke-width="0.5"/><rect x="75" y="50" width="25" height="12.5" fill="#A8E6CF" stroke="#555" stroke-width="0.5"/><rect x="100" y="50" width="25" height="12.5" fill="#A8E6CF" stroke="#555" stroke-width="0.5"/><rect x="125" y="50" width="25" height="12.5" fill="#B8D8F0" stroke="#555" stroke-width="0.5"/><rect x="150" y="50" width="25" height="12.5" fill="#B8D8F0" stroke="#555" stroke-width="0.5"/><rect x="175" y="50" width="25" height="12.5" fill="#B8D8F0" stroke="#555" stroke-width="0.5"/><rect x="0" y="62.5" width="25" height="12.5" fill="#2D2D2D" stroke="#555" stroke-width="0.5"/><rect x="25" y="62.5" width="25" height="12.5" fill="#2D2D2D" stroke="#555" stroke-width="0.5"/><rect x="50" y="62.5" width="25" height="12.5" fill="#B8D8F0" stroke="#555" stroke-width="0.5"/><rect x="75" y="62.5" width="25" height="12.5" fill="#A8E6CF" stroke="#555" stroke-width="0.5"/><rect x="100" y="62.5" width="25" height="12.5" fill="#A8E6CF" stroke="#555" stroke-width="0.5"/><rect x="125" y="62.5" width="25" height="12.5" fill="#B8D8F0" stroke="#555" stroke-width="0.5"/><rect x="150" y="62.5" width="25" height="12.5" fill="#2D2D2D" stroke="#555" stroke-width="0.5"/><rect x="175" y="62.5" width="25" height="12.5" fill="#2D2D2D" stroke="#555" stroke-width="0.5"/><rect x="0" y="75" width="25" height="12.5" fill="#2D2D2D" stroke="#555" stroke-width="0.5"/><rect x="25" y="75" width="25" height="12.5" fill="#2D2D2D" stroke="#555" stroke-width="0.5"/><rect x="50" y="75" width="25" height="12.5" fill="#B8D8F0" stroke="#555" stroke-width="0.5"/><rect x="75" y="75" width="25" height="12.5" fill="#A8E6CF" stroke="#555" stroke-width="0.5"/><rect x="100" y="75" width="25" height="12.5" fill="#A8E6CF" stroke="#555" stroke-width="0.5"/><rect x="125" y="75" width="25" height="12.5" fill="#B8D8F0" stroke="#555" stroke-width="0.5"/><rect x="150" y="75" width="25" height="12.5" fill="#2D2D2D" stroke="#555" stroke-width="0.5"/><rect x="175" y="75" width="25" height="12.5" fill="#2D2D2D" stroke="#555" stroke-width="0.5"/><rect x="0" y="87.5" width="25" height="12.5" fill="#2D2D2D" stroke="#555" stroke-width="0.5"/><rect x="25" y="87.5" width="25" height="12.5" fill="#2D2D2D" stroke="#555" stroke-width="0.5"/><rect x="50" y="87.5" width="25" height="12.5" fill="#B8D8F0" stroke="#555" stroke-width="0.5"/><rect x="75" y="87.5" width="25" height="12.5" fill="#A8E6CF" stroke="#555" stroke-width="0.5"/><rect x="100" y="87.5" width="25" height="12.5" fill="#A8E6CF" stroke="#555" stroke-width="0.5"/><rect x="125" y="87.5" width="25" height="12.5" fill="#B8D8F0" stroke="#555" stroke-width="0.5"/><rect x="150" y="87.5" width="25" height="12.5" fill="#2D2D2D" stroke="#555" stroke-width="0.5"/><rect x="175" y="87.5" width="25" height="12.5" fill="#2D2D2D" stroke="#555" stroke-width="0.5"/><rect x="0" y="100" width="25" height="12.5" fill="#2D2D2D" stroke="#555" stroke-width="0.5"/><rect x="25" y="100" width="25" height="12.5" fill="#2D2D2D" stroke="#555" stroke-width="0.5"/><rect x="50" y="100" width="25" height="12.5" fill="#B8D8F0" stroke="#555" stroke-width="0.5"/><rect x="75" y="100" width="25" height="12.5" fill="#A8E6CF" stroke="#555" stroke-width="0.5"/><rect x="100" y="100" width="25" height="12.5" fill="#A8E6CF" stroke="#555" stroke-width="0.5"/><rect x="125" y="100" width="25" height="12.5" fill="#B8D8F0" stroke="#555" stroke-width="0.5"/><rect x="150" y="100" width="25" height="12.5" fill="#2D2D2D" stroke="#555" stroke-width="0.5"/><rect x="175" y="100" width="25" height="12.5" fill="#2D2D2D" stroke="#555" stroke-width="0.5"/><rect x="0" y="112.5" width="25" height="12.5" fill="#2D2D2D" stroke="#555" stroke-width="0.5"/><rect x="25" y="112.5" width="25" height="12.5" fill="#2D2D2D" stroke="#555" stroke-width="0.5"/><rect x="50" y="112.5" width="25" height="12.5" fill="#B8D8F0" stroke="#555" stroke-width="0.5"/><rect x="75" y="112.5" width="25" height="12.5" fill="#A8E6CF" stroke="#555" stroke-width="0.5"/><rect x="100" y="112.5" width="25" height="12.5" fill="#A8E6CF" stroke="#555" stroke-width="0.5"/><rect x="125" y="112.5" width="25" height="12.5" fill="#B8D8F0" stroke="#555" stroke-width="0.5"/><rect x="150" y="112.5" width="25" height="12.5" fill="#2D2D2D" stroke="#555" stroke-width="0.5"/><rect x="175" y="112.5" width="25" height="12.5" fill="#2D2D2D" stroke="#555" stroke-width="0.5"/><rect x="0" y="125" width="25" height="12.5" fill="#2D2D2D" stroke="#555" stroke-width="0.5"/><rect x="25" y="125" width="25" height="12.5" fill="#2D2D2D" stroke="#555" stroke-width="0.5"/><rect x="50" y="125" width="25" height="12.5" fill="#B8D8F0" stroke="#555" stroke-width="0.5"/><rect x="75" y="125" width="25" height="12.5" fill="#A8E6CF" stroke="#555" stroke-width="0.5"/><rect x="100" y="125" width="25" height="12.5" fill="#A8E6CF" stroke="#555" stroke-width="0.5"/><rect x="125" y="125" width="25" height="12.5" fill="#B8D8F0" stroke="#555" stroke-width="0.5"/><rect x="150" y="125" width="25" height="12.5" fill="#2D2D2D" stroke="#555" stroke-width="0.5"/><rect x="175" y="125" width="25" height="12.5" fill="#2D2D2D" stroke="#555" stroke-width="0.5"/><rect x="0" y="137.5" width="25" height="12.5" fill="#2D2D2D" stroke="#555" stroke-width="0.5"/><rect x="25" y="137.5" width="25" height="12.5" fill="#2D2D2D" stroke="#555" stroke-width="0.5"/><rect x="50" y="137.5" width="25" height="12.5" fill="#B8D8F0" stroke="#555" stroke-width="0.5"/><rect x="75" y="137.5" width="25" height="12.5" fill="#A8E6CF" stroke="#555" stroke-width="0.5"/><rect x="100" y="137.5" width="25" height="12.5" fill="#A8E6CF" stroke="#555" stroke-width="0.5"/><rect x="125" y="137.5" width="25" height="12.5" fill="#B8D8F0" stroke="#555" stroke-width="0.5"/><rect x="150" y="137.5" width="25" height="12.5" fill="#2D2D2D" stroke="#555" stroke-width="0.5"/><rect x="175" y="137.5" width="25" height="12.5" fill="#2D2D2D" stroke="#555" stroke-width="0.5"/><line x1="0" y1="0" x2="0" y2="150" stroke="#555" stroke-width="0.5" opacity="0.7"/><line x1="25" y1="0" x2="25" y2="150" stroke="#555" stroke-width="0.5" opacity="0.7"/><line x1="50" y1="0" x2="50" y2="150" stroke="#555" stroke-width="0.5" opacity="0.7"/><line x1="75" y1="0" x2="75" y2="150" stroke="#555" stroke-width="0.5" opacity="0.7"/><line x1="100" y1="0" x2="100" y2="150" stroke="#555" stroke-width="0.5" opacity="0.7"/><line x1="125" y1="0" x2="125" y2="150" stroke="#555" stroke-width="0.5" opacity="0.7"/><line x1="150" y1="0" x2="150" y2="150" stroke="#555" stroke-width="0.5" opacity="0.7"/><line x1="175" y1="0" x2="175" y2="150" stroke="#555" stroke-width="0.5" opacity="0.7"/><line x1="200" y1="0" x2="200" y2="150" stroke="#555" stroke-width="0.5" opacity="0.7"/><line x1="0" y1="0" x2="200" y2="0" stroke="#555" stroke-width="0.5" opacity="0.7"/><line x1="0" y1="12.5" x2="200" y2="12.5" stroke="#555" stroke-width="0.5" opacity="0.7"/><line x1="0" y1="25" x2="200" y2="25" stroke="#555" stroke-width="0.5" opacity="0.7"/><line x1="0" y1="37.5" x2="200" y2="37.5" stroke="#555" stroke-width="0.5" opacity="0.7"/><line x1="0" y1="50" x2="200" y2="50" stroke="#555" stroke-width="0.5" opacity="0.7"/><line x1="0" y1="62.5" x2="200" y2="62.5" stroke="#555" stroke-width="0.5" opacity="0.7"/><line x1="0" y1="75" x2="200" y2="75" stroke="#555" stroke-width="0.5" opacity="0.7"/><line x1="0" y1="87.5" x2="200" y2="87.5" stroke="#555" stroke-width="0.5" opacity="0.7"/><line x1="0" y1="100" x2="200" y2="100" stroke="#555" stroke-width="0.5" opacity="0.7"/><line x1="0" y1="112.5" x2="200" y2="112.5" stroke="#555" stroke-width="0.5" opacity="0.7"/><line x1="0" y1="125" x2="200" y2="125" stroke="#555" stroke-width="0.5" opacity="0.7"/><line x1="0" y1="137.5" x2="200" y2="137.5" stroke="#555" stroke-width="0.5" opacity="0.7"/><line x1="0" y1="150" x2="200" y2="150" stroke="#555" stroke-width="0.5" opacity="0.7"/><text x="100" y="20" text-anchor="middle" fill="white" font-family="Arial" font-size="12" font-weight="bold">CARJAN Map 04</text></svg>